<svg id="Layer_1" data-name="Layer 1" xmlns="http://www.w3.org/2000/svg" viewBox="0 0 512 512"><defs><style>.cls-1{fill:#727272;}</style></defs><title>newspaper-2-handdrawn</title><path class="cls-1" d="M340.53,174.49q12.21,0,24.42.22a46.57,46.57,0,0,0,19.31-3.47c2.08-.88,1.93-2.8-.62-3.3-4-.78-8.07-1.49-12.26-1.89-7.44-.7-15-1.23-22.51-1.67-10.74-.62-21.5-1.36-32.3-1.55-18.38-.33-36.65-2.25-55.16-1a15.45,15.45,0,0,1-3.2-.23c-22.75-3.53-46.56-.57-69.54-2.64a12.52,12.52,0,0,0-1.62,0c-5.77.3-9.76,2.8-8.78,5.53,1.86,5.19,9.76,9,20.63,9.67,3.75.24,7.58.24,11.38.24q36.65,0,73.29,0v0Q312,174.48,340.53,174.49Z"/><path class="cls-1" d="M384.92,375.51a21.35,21.35,0,0,0-4.6-1.89c-2.79-.7-5.61-1.23-8.44-1.67a115.92,115.92,0,0,0-12.11-1.55c-6.89-.33-13.74-2.25-20.68-1a2.31,2.31,0,0,1-1.2-.23c-8.53-3.53-17.46-.57-26.08-2.64a1.8,1.8,0,0,0-.61,0c-2.17.3-3.66,2.8-3.29,5.53.7,5.19,3.66,9,7.74,9.67a24.86,24.86,0,0,0,4.27.24q13.74,0,27.48,0v0c7.12,0,14.24,0,21.36,0q4.58,0,9.16.22c2.8.12,5.17-1.13,7.24-3.47C385.93,377.93,385.88,376,384.92,375.51Z"/><path class="cls-1" d="M178.17,268.3c.7,5.19,3.66,9,7.74,9.67a24.9,24.9,0,0,0,4.27.24q13.74,0,27.48,0v0c7.12,0,14.24,0,21.36,0q4.58,0,9.16.22c2.8.12,5.17-1.13,7.24-3.47.78-.88.72-2.8-.23-3.3a21.35,21.35,0,0,0-4.6-1.89c-2.79-.7-5.61-1.23-8.44-1.67A115.92,115.92,0,0,0,230,266.61c-6.89-.33-13.74-2.25-20.68-1a2.31,2.31,0,0,1-1.2-.23c-8.53-3.53-17.46-.57-26.08-2.64a1.79,1.79,0,0,0-.61,0C179.3,263.07,177.8,265.58,178.17,268.3Z"/><path class="cls-1" d="M178.17,216.41c.7,5.19,3.66,9,7.74,9.67a24.9,24.9,0,0,0,4.27.24q13.74,0,27.48,0v0c7.12,0,14.24,0,21.36,0q4.58,0,9.16.22c2.8.12,5.17-1.13,7.24-3.47.78-.88.72-2.8-.23-3.3a21.35,21.35,0,0,0-4.6-1.89c-2.79-.7-5.61-1.23-8.44-1.67A116,116,0,0,0,230,214.72c-6.89-.33-13.74-2.25-20.68-1a2.31,2.31,0,0,1-1.2-.23c-8.53-3.53-17.46-.57-26.08-2.64a1.79,1.79,0,0,0-.61,0C179.3,211.18,177.8,213.68,178.17,216.41Z"/><path class="cls-1" d="M470.64,461.61V444.48c0-91.35-.26-182.92.77-272.89,0-4.08,0-8.5,0-12.71-.3-45.21-2.8-76.4-5.53-68.75-5.19,14.58-9,76.42-9.67,161.52-.08,29.33-.16,59.35-.24,89.06V466.22c0,3,0,6.15-.15,8.15a26.75,26.75,0,0,1-1.67,6.62,25,25,0,0,1-21,15.43c-2,.17-5.52.08-8.35.11H133.41c-1.47,0-2.39-.07-3.59-.19a24.81,24.81,0,0,1-20.41-16.19,23.07,23.07,0,0,1-1.42-6.67l-.09-1.72V429.2h0V52.87c.06-4.52-.17-9.79.29-12.83A24.87,24.87,0,0,1,115.1,26.2l.31-.31a23.23,23.23,0,0,1,4-3.18,24.77,24.77,0,0,1,9.89-3.63c3-.43,8.4-.21,12.88-.27L333.35,19l26.92,0,12.91-.1,6.31-.07,1.2,0-.35,16.81c-.13,8.17-.08,16.35.35,24.57a25.22,25.22,0,0,1-.23,4.1c-.49,4.07-.86,8.17-1.13,12.29l-.19,3.09L379,84.19l-.22,11.73,23,.18L417.93,96c10.76,0,21.5.07,32.09.81a20.74,20.74,0,0,0,2.08,0c7.39-.3,12.49-2.8,11.24-5.53a8.66,8.66,0,0,0-2-2.59,4.81,4.81,0,0,0-.41-.81c-3-4.14-6.25-8.36-9.77-12.44-6.24-7.23-12.68-14.43-19.19-21.55-9.29-10.17-18.51-20.43-28.14-30.34L391.13,10.44c-.48,0-1,0-1.42-.08a34.8,34.8,0,0,1-6.73.1l-2.11-.2v.08l-147-1.39a3.65,3.65,0,0,0-1.37-.34L132.71,3.56v0h-.32l-.64,0a3.79,3.79,0,0,0-.67,0H83.67a61.19,61.19,0,0,0-8,.35A39.95,39.95,0,0,0,41.24,37.75c-.78,6.2-.35,10.33-.46,15.09h0q0,159.69,0,319.41l-.07,68.45,0,17.11,0,8.56c0,2.85-.08,5.51.18,9.32a40.52,40.52,0,0,0,23.73,32.88,39.1,39.1,0,0,0,10.54,3,41,41,0,0,0,5.38.42H84.8l16.72-.19q16.34-.27,31.19-.85v-1.48c8.84.1,17.11,0,25.71,0l54.25-.33c8-.07,17.08.08,25.06.23,44.53.88,89.57,1.36,134.9,1.61l34,.15,17.06,0c3,0,5.44.08,8.79,0a39.24,39.24,0,0,0,37.18-31,46.05,46.05,0,0,0,.94-10ZM393.3,31.83h0V29.62l23.88,23.9,22,22.26a87.3,87.3,0,0,0,7.74,7,75.19,75.19,0,0,0-10-1.15c-4.79-.24-9.71-.24-14.56-.24H393.29Zm-290,471.53-15.67-.25c-5.28-.11-10.44.11-15.25-1.42a31.08,31.08,0,0,1-20.69-20.16c-1.71-4.77-1.53-9.69-1.44-15.06l.19-15.82L50.83,419c.62-60.24,1.36-120.57,1.55-181.08q.53-74.27,1-148.34l.23-37.11.06-9.22a29.85,29.85,0,0,1,1.22-7.63,27.69,27.69,0,0,1,8.5-12.71,27.21,27.21,0,0,1,14-6.1,39.22,39.22,0,0,1,4-.24h4.65l9.31,0,11.49-.07A34.54,34.54,0,0,0,102.62,21a37.53,37.53,0,0,0-6.45,12.3,39.23,39.23,0,0,0-1.42,6.89l-.24,3.51-.07,3q-.23,12-.45,24.1-.28,24.17-.57,48.52-.13,48.7-.26,97.84c0,65.42.26,131-.77,195.42,0,2.92,0,6.08,0,9.1.18,19.25,1.14,34.9,2.46,43.31v2.26c-.07,4.15-.07,9.88,1.46,14.87a37.42,37.42,0,0,0,16,21.46Z"/><path class="cls-1" d="M384.92,219.83a21.35,21.35,0,0,0-4.6-1.89c-2.79-.7-5.61-1.23-8.44-1.67a116,116,0,0,0-12.11-1.55c-6.89-.33-13.74-2.25-20.68-1a2.31,2.31,0,0,1-1.2-.23c-8.53-3.53-17.46-.57-26.08-2.64a1.79,1.79,0,0,0-.61,0c-2.17.3-3.66,2.8-3.29,5.53.7,5.19,3.66,9,7.74,9.67a24.91,24.91,0,0,0,4.27.24q13.74,0,27.48,0v0c7.12,0,14.24,0,21.36,0q4.58,0,9.16.22c2.8.12,5.17-1.13,7.24-3.47C385.93,222.25,385.88,220.34,384.92,219.83Z"/><path class="cls-1" d="M384.92,271.72a21.35,21.35,0,0,0-4.6-1.89c-2.79-.7-5.61-1.23-8.44-1.67a115.93,115.93,0,0,0-12.11-1.55c-6.89-.33-13.74-2.25-20.68-1a2.31,2.31,0,0,1-1.2-.23c-8.53-3.53-17.46-.57-26.08-2.64a1.79,1.79,0,0,0-.61,0c-2.17.3-3.66,2.8-3.29,5.53.7,5.19,3.66,9,7.74,9.67a24.91,24.91,0,0,0,4.27.24q13.74,0,27.48,0v0c7.12,0,14.24,0,21.36,0q4.58,0,9.16.22c2.8.12,5.17-1.13,7.24-3.47C385.93,274.14,385.88,272.23,384.92,271.72Z"/><path class="cls-1" d="M293.72,90.1a42.27,42.27,0,0,0-6.9-1.89c-4.19-.7-8.42-1.23-12.66-1.67-6-.62-12.1-1.36-18.17-1.55-10.34-.33-20.62-2.25-31-1a5,5,0,0,1-1.8-.23c-12.8-3.53-26.19-.57-39.12-2.64a4,4,0,0,0-.91,0c-3.25.3-5.49,2.8-4.94,5.53,1,5.19,5.49,9,11.6,9.67a55.76,55.76,0,0,0,6.4.24q20.61,0,41.22,0v0c10.68,0,21.36,0,32,0q6.87,0,13.73.22a16.62,16.62,0,0,0,10.86-3.47A1.89,1.89,0,0,0,293.72,90.1Z"/><path class="cls-1" d="M368.75,434q4.58,0,9.16.22c2.8.12,5.17-1.13,7.24-3.47.78-.88.72-2.8-.23-3.3a21.35,21.35,0,0,0-4.6-1.89c-2.79-.7-5.61-1.24-8.44-1.67a116.06,116.06,0,0,0-12.11-1.55c-6.89-.33-13.74-2.25-20.68-1a2.31,2.31,0,0,1-1.2-.23c-8.53-3.53-17.46-.57-26.08-2.64a1.79,1.79,0,0,0-.61,0c-2.17.3-3.66,2.8-3.29,5.53.7,5.19,3.66,9,7.74,9.67a24.86,24.86,0,0,0,4.27.24q13.74,0,27.48,0v0C354.51,434,361.63,433.93,368.75,434Z"/><path class="cls-1" d="M340.53,330.18q12.21,0,24.42.22a46.57,46.57,0,0,0,19.31-3.47c2.08-.88,1.93-2.8-.62-3.3-4-.78-8.07-1.49-12.26-1.89-7.44-.7-15-1.23-22.51-1.67-10.74-.62-21.5-1.36-32.3-1.55-18.38-.33-36.65-2.25-55.16-1a15.43,15.43,0,0,1-3.2-.23c-22.75-3.53-46.56-.57-69.54-2.64a12.65,12.65,0,0,0-1.62,0c-5.77.3-9.76,2.8-8.78,5.53,1.86,5.19,9.76,9,20.63,9.67,3.75.24,7.58.24,11.38.24q36.65,0,73.29,0v0Q312,330.16,340.53,330.18Z"/><path class="cls-1" d="M254.85,423.73c.78-5,1.49-10.09,1.89-15.33l.93-14,.74-14.74.28-8-20-.78c-5.75-.23-11.51-.41-17.28-.49-7.23-.1-14.45-.37-21.66-.64L189,369.37l-16.17-.29q0,9-.07,18.11c0,4.27.17,8.55.4,12.84a24,24,0,0,1-.23,4c-.46,3.67-.8,7.37-1.07,11.08l-.18,2.79-.15,4.72-.23,10.55,23,.24,16.22,0c10.82,0,21.61,0,32.26.81a19.89,19.89,0,0,0,2,0c7.22-.3,12.2-2.8,11-5.53a8.69,8.69,0,0,0-2-2.64A3.16,3.16,0,0,0,254.85,423.73ZM230,418.94c-4.68-.24-9.48-.24-14.22-.24h-30V382h.07l0,0h62.45l0,.18,0,5.12-.14,13a71.33,71.33,0,0,0,3.41,23.91C246.9,421.41,239.37,419.43,230,418.94Z"/></svg>