<svg id="Layer_1" data-name="Layer 1" xmlns="http://www.w3.org/2000/svg" viewBox="0 0 512 512"><defs><style>.cls-1{fill:#141f38;}</style></defs><title>player-outline</title><path class="cls-1" d="M472.62,26.26H39.38A39.43,39.43,0,0,0,0,65.64V446.36a39.43,39.43,0,0,0,39.38,39.38H472.62A39.43,39.43,0,0,0,512,446.36V65.64A39.43,39.43,0,0,0,472.62,26.26Zm26.26,420.1a26.28,26.28,0,0,1-26.26,26.26H39.38a26.28,26.28,0,0,1-26.26-26.26V380.72H498.87ZM13.13,367.59V65.64A26.28,26.28,0,0,1,39.38,39.38H472.62a26.28,26.28,0,0,1,26.26,26.26V367.59Z"/><path class="cls-1" d="M59.08,433.23H452.92a6.56,6.56,0,1,0,0-13.13H59.08a6.56,6.56,0,0,0,0,13.13Z"/><path class="cls-1" d="M256,91.9A111.59,111.59,0,1,0,367.59,203.49,111.71,111.71,0,0,0,256,91.9Zm0,210.05a98.46,98.46,0,1,1,98.46-98.46A98.57,98.57,0,0,1,256,301.95Z"/><path class="cls-1" d="M294.88,192.29l-51.14-26.54a14.72,14.72,0,0,0-14.33.46,12.57,12.57,0,0,0-6.23,10.74V230a12.57,12.57,0,0,0,6.23,10.74,14.71,14.71,0,0,0,14.33.46l51.14-26.54a12.41,12.41,0,0,0,0-22.4Zm-57.19,37.29c-.66.34-1.37.07-1.38.42l-.18-52.5a1.36,1.36,0,0,1,.87-.27,1.48,1.48,0,0,1,.69.17L288,203.49Z"/></svg>